<svg xmlns="http://www.w3.org/2000/svg" width="1080" height="1920" viewBox="0 0 1080 1920"><title>trend yanks mascot</title><rect width="1080" height="1920" fill="#07101E"/><defs><filter id="shadow"><feDropShadow dx="0" dy="18" stdDeviation="20" flood-opacity=".35"/></filter><filter id="glow"><feGaussianBlur stdDeviation="12" result="b"/><feMerge><feMergeNode in="b"/><feMergeNode in="SourceGraphic"/></feMerge></filter></defs><text x="540.0" y="210.0" text-anchor="middle" font-family="Arial, sans-serif" font-size="44" font-weight="700" fill="#9FB0C8" opacity="1.000">THE SAME GROCERY BASKET GOT DRAMATICALLY MORE EXPENSIVE.</text><path d="M130.0,1220.0 L540.0,901.1 L875.3,654.9 L875.3,1320 L130.0,1320 Z" fill="#63D8E8" opacity=".14"/><path d="M130.0,1220.0 L540.0,901.1 L875.3,654.9" fill="none" stroke="#63D8E8" stroke-width="22" stroke-linecap="round" stroke-linejoin="round" filter="url(#glow)"/><line x1="110" y1="1320" x2="970" y2="1320" stroke="#30405B" stroke-width="6"/><circle cx="875.3" cy="654.9" r="30" fill="#F2C14E" filter="url(#glow)"/><g transform="translate(865.3,589.9) rotate(-18) scale(0.700)" filter="url(#shadow)"><ellipse cx="0" cy="-62" rx="78" ry="100" fill="#5FD0C7" stroke="#17272E" stroke-width="10"/><line x1="-55" y1="-45" x2="-100.5" y2="-20" stroke="#17272E" stroke-width="16" stroke-linecap="round"/><line x1="55" y1="-45" x2="100.5" y2="-20" stroke="#17272E" stroke-width="16" stroke-linecap="round"/><line x1="-30" y1="20" x2="-45" y2="70.0" stroke="#17272E" stroke-width="18" stroke-linecap="round"/><line x1="30" y1="20" x2="45" y2="70.0" stroke="#17272E" stroke-width="18" stroke-linecap="round"/><text x="-28" y="-78" font-size="32" text-anchor="middle" fill="#17272E">○</text><text x="28" y="-78" font-size="32" text-anchor="middle" fill="#17272E">○</text><text x="0" y="-35" font-size="34" text-anchor="middle" fill="#17272E">⌢</text></g><text x="540.0" y="1480.0" text-anchor="middle" font-family="Arial, sans-serif" font-size="92" font-weight="800" fill="#F2C14E" opacity="0.797">$1,030</text><circle cx="130.0" cy="1220.0" r="11" fill="#F8FAFC" opacity=".55"/><circle cx="540.0" cy="901.1" r="11" fill="#F8FAFC" opacity=".55"/><circle cx="950.0" cy="600.0" r="11" fill="#F8FAFC" opacity=".55"/></svg>
