<svg viewBox="0 0 340 388" xmlns="http://www.w3.org/2000/svg" role="img" aria-label="Data mascot laugh pose"><defs><linearGradient id="Tlaugh" x1="0" y1="0" x2="0" y2="1"><stop offset="0" stop-color="#4AC6B4"/><stop offset="1" stop-color="#2E9C8D"/></linearGradient><linearGradient id="Claugh" x1="0" y1="0" x2="0" y2="1"><stop offset="0" stop-color="#FFFFFF"/><stop offset="1" stop-color="#E4ECE9"/></linearGradient><radialGradient id="Glaugh" cx="0.5" cy="0.5" r="0.5"><stop offset="0" stop-color="#0D1A17" stop-opacity="0.30"/><stop offset="1" stop-color="#0D1A17" stop-opacity="0"/></radialGradient></defs><ellipse cx="170" cy="373" rx="82" ry="13" fill="url(#Glaugh)"/><path d="M138,66 Q134,34 148,24 Q160,34 158,66 Z" fill="url(#Tlaugh)" stroke="#17272E" stroke-width="6" stroke-linejoin="round"/><path d="M202,66 Q206,34 192,24 Q180,34 182,66 Z" fill="url(#Tlaugh)" stroke="#17272E" stroke-width="6" stroke-linejoin="round"/><path d="M152,300 Q145,326 138,352" fill="none" stroke="#17272E" stroke-width="36" stroke-linecap="round"/><path d="M152,300 Q145,326 138,352" fill="none" stroke="url(#Tlaugh)" stroke-width="27" stroke-linecap="round"/><path d="M188,300 Q195,326 202,352" fill="none" stroke="#17272E" stroke-width="36" stroke-linecap="round"/><path d="M188,300 Q195,326 202,352" fill="none" stroke="url(#Tlaugh)" stroke-width="27" stroke-linecap="round"/><ellipse cx="136" cy="356" rx="28" ry="14" fill="url(#Tlaugh)" stroke="#17272E" stroke-width="6"/><ellipse cx="204" cy="356" rx="28" ry="14" fill="url(#Tlaugh)" stroke="#17272E" stroke-width="6"/><rect x="118" y="190" width="104" height="112" rx="40" fill="url(#Tlaugh)" stroke="#17272E" stroke-width="6"/><rect x="151" y="198" width="38" height="120" rx="14" fill="#D8E4E0"/><path d="M122,210 Q122,199 132,199 L152,199 L165,247 L165,320 L134,320 Q122,320 122,309 Z" fill="url(#Claugh)" stroke="#17272E" stroke-width="6" stroke-linejoin="round"/><path d="M218,210 Q218,199 208,199 L188,199 L175,247 L175,320 L206,320 Q218,320 218,309 Z" fill="url(#Claugh)" stroke="#17272E" stroke-width="6" stroke-linejoin="round"/><path d="M152,199 L165,247" fill="none" stroke="#DCE7E3" stroke-width="4"/><path d="M188,199 L175,247" fill="none" stroke="#DCE7E3" stroke-width="4"/><rect x="182" y="270" width="26" height="22" rx="4" fill="none" stroke="#17272E" stroke-width="4"/><rect x="190" y="262" width="6" height="16" rx="2" fill="#2E7DD1" stroke="#17272E" stroke-width="3"/><rect x="153" y="166" width="34" height="36" rx="12" fill="url(#Tlaugh)" stroke="#17272E" stroke-width="6"/><circle cx="170" cy="114" r="62" fill="url(#Tlaugh)" stroke="#17272E" stroke-width="6"/><ellipse cx="146" cy="80" rx="22" ry="15" fill="#57CBBC" opacity="0.6"/><ellipse cx="131" cy="137" rx="13" ry="8" fill="#8CE0D1" opacity="0.55"/><ellipse cx="209" cy="137" rx="13" ry="8" fill="#8CE0D1" opacity="0.55"/><path d="M129,78 Q144,73 159,78" fill="none" stroke="#17272E" stroke-width="6" stroke-linecap="round"/><path d="M129,114 Q144,99 159,114" fill="none" stroke="#17272E" stroke-width="6" stroke-linecap="round"/><path d="M181,78 Q196,73 211,78" fill="none" stroke="#17272E" stroke-width="6" stroke-linecap="round"/><path d="M181,114 Q196,99 211,114" fill="none" stroke="#17272E" stroke-width="6" stroke-linecap="round"/><rect x="120" y="89" width="48" height="42" rx="12" fill="none" stroke="#17272E" stroke-width="6"/><rect x="172" y="89" width="48" height="42" rx="12" fill="none" stroke="#17272E" stroke-width="6"/><path d="M168,107 L172,107" stroke="#17272E" stroke-width="6" stroke-linecap="round"/><path d="M120,107 L102,113" stroke="#17272E" stroke-width="6" stroke-linecap="round"/><path d="M220,107 L238,113" stroke="#17272E" stroke-width="6" stroke-linecap="round"/><path d="M150,140 Q170,138 190,140 Q184,166 170,168 Q156,166 150,140 Z" fill="#3B2126" stroke="#17272E" stroke-width="5" stroke-linejoin="round"/><path d="M157,157 Q170,176 183,157 Z" fill="#F58C8C"/><path d="M160,182 L180,182 L174,196 L166,196 Z" fill="#EF5C46" stroke="#17272E" stroke-width="5" stroke-linejoin="round"/><path d="M166,196 L174,196 L179,246 L170,260 L161,246 Z" fill="#EF5C46" stroke="#17272E" stroke-width="5" stroke-linejoin="round"/><path d="M128,206 Q144,226 150,252" fill="none" stroke="#17272E" stroke-width="32" stroke-linecap="round"/><path d="M128,206 Q144,226 150,252" fill="none" stroke="url(#Claugh)" stroke-width="23" stroke-linecap="round"/><circle cx="150" cy="252" r="19" fill="url(#Tlaugh)" stroke="#17272E" stroke-width="6"/><path d="M212,206 Q207,240 218,272" fill="none" stroke="#17272E" stroke-width="32" stroke-linecap="round"/><path d="M212,206 Q207,240 218,272" fill="none" stroke="url(#Claugh)" stroke-width="23" stroke-linecap="round"/><circle cx="218" cy="272" r="19" fill="url(#Tlaugh)" stroke="#17272E" stroke-width="6"/></svg>