<svg xmlns="http://www.w3.org/2000/svg" width="1080" height="1920" viewBox="0 0 1080 1920"><title>receipt roll</title><rect width="1080" height="1920" fill="#07101E"/><defs><filter id="shadow"><feDropShadow dx="0" dy="16" stdDeviation="18" flood-opacity=".35"/></filter><filter id="glow"><feGaussianBlur stdDeviation="10" result="b"/><feMerge><feMergeNode in="b"/><feMergeNode in="SourceGraphic"/></feMerge></filter></defs><text x="540.0" y="190.0" text-anchor="middle" font-family="Arial,sans-serif" font-size="48" font-weight="800" fill="#9FB0C8" opacity="1.000">THE RECEIPT KEPT GROWING</text><path d="M230 300 L850 300 L850 1530.0 L820 1548.0 L790 1530.0 L760 1548.0 L730 1530.0 L700 1548.0 L670 1530.0 L640 1548.0 L610 1530.0 L580 1548.0 L550 1530.0 L520 1548.0 L490 1530.0 L460 1548.0 L430 1530.0 L400 1548.0 L370 1530.0 L340 1548.0 L310 1530.0 L280 1548.0 L230 1530.0 Z" fill="#FFF9EB" filter="url(#shadow)"/><text x="540.0" y="420.0" text-anchor="middle" font-family="Arial,sans-serif" font-size="50" font-weight="800" fill="#4B5563" opacity="1.000">2019</text><text x="540.0" y="520.0" text-anchor="middle" font-family="Arial,sans-serif" font-size="82" font-weight="800" fill="#111827" opacity="1.000">$680</text><line x1="300" y1="650" x2="780" y2="650" stroke="#B8B1A2" stroke-width="4" stroke-dasharray="15 12"/><text x="540.0" y="780.0" text-anchor="middle" font-family="Arial,sans-serif" font-size="50" font-weight="800" fill="#4B5563" opacity="1.000">2026</text><text x="540.0" y="910.0" text-anchor="middle" font-family="Arial,sans-serif" font-size="104" font-weight="800" fill="#F06464" opacity="1.000">$1,030</text><g transform="translate(820.0,1490.0) rotate(12.0) scale(0.780)" filter="url(#shadow)"><ellipse cx="0" cy="-60" rx="75" ry="98" fill="#5FD0C7" stroke="#17272E" stroke-width="10"/><line x1="-54" y1="-42" x2="-118" y2="-5" stroke="#17272E" stroke-width="15" stroke-linecap="round"/><line x1="54" y1="-42" x2="118" y2="-5" stroke="#17272E" stroke-width="15" stroke-linecap="round"/><line x1="-25" y1="20" x2="-45" y2="112" stroke="#17272E" stroke-width="17" stroke-linecap="round"/><line x1="25" y1="20" x2="45" y2="112" stroke="#17272E" stroke-width="17" stroke-linecap="round"/><circle cx="-27" cy="-80" r="8" fill="#17272E"/><circle cx="27" cy="-80" r="8" fill="#17272E"/><text x="0" y="-34" font-size="35" text-anchor="middle" fill="#17272E">O</text></g><text x="540.0" y="1600.0" text-anchor="middle" font-family="Arial,sans-serif" font-size="92" font-weight="800" fill="#F2C14E" opacity="1.000">+$350</text></svg>
